<svg version="1.2" xmlns="http://www.w3.org/2000/svg" viewBox="0 0 1506 576" width="1506" height="576">
	<title>YELP_BIG-svg</title>
	<style>
		.s0 { fill: #ffffff } 
	</style>
	<path id="Layer" class="s0" d="m1219.1 337.3l-81.7 18.9c-8.4 2-16.8 4.1-25.5 3.5-5.8-0.4-11.4-1-16.9-4.8-3-2.1-5.5-4.8-7.4-8-7.7-12.3-8.1-30.4-8.2-44.5q0-5.8 0.4-11.6 0.5-5.9 1.4-11.6 0.9-5.8 2.3-11.5 1.4-5.7 3.3-11.2 0.5-1.4 1.1-2.7 0.5-1.3 1.2-2.6 0.6-1.3 1.4-2.6 0.7-1.2 1.5-2.4 0.4-0.6 0.8-1.1 0.4-0.6 0.9-1.2 0.4-0.5 0.8-1 0.5-0.6 0.9-1.1 1-1 2-1.9 1-0.9 2.2-1.7 1.1-0.8 2.3-1.5 1.2-0.7 2.4-1.2 1.2-0.5 2.5-0.9 1.2-0.4 2.5-0.6 1.3-0.2 2.6-0.3 1.3-0.1 2.6-0.1c5.3 0.1 11.5 1.2 20.3 3.9q0.5 0.1 1 0.3 0.5 0.2 1 0.3 0.6 0.2 1.1 0.3 0.5 0.2 1 0.3c7.3 2.3 15.7 5.4 25.6 8.9 15.3 5.4 30.4 10.8 45.5 16.5l27 9.8q1.8 0.7 3.7 1.5 1.8 0.7 3.6 1.5 1.7 0.9 3.5 1.8 1.7 0.9 3.5 1.8 1.4 0.8 2.8 1.8 1.3 1 2.6 2 1.3 1.1 2.4 2.3 1.2 1.2 2.2 2.5 0.7 1.1 1.3 2.2 0.7 1.1 1.2 2.2 0.5 1.2 1 2.4 0.4 1.2 0.7 2.4l0.1 0.4c0.8 3.4 0.9 6.9 0.3 10.4-0.5 3.4-1.7 6.7-3.5 9.7-1.8 3-4.2 5.6-6.9 7.7-2.8 2.1-6 3.6-9.3 4.5-1.1 0.4-1.9 0.6-2.5 0.7l-24.5 5.7zm286.4-86.9q-0.2 1.4-0.4 2.7-0.3 1.4-0.7 2.7-0.4 1.3-0.9 2.6-0.5 1.3-1.2 2.5c-3.3 5.8-8.1 8.7-13.1 11.6-7.5 4.4-16 6.2-24.4 8.1l-106.3 24.6q-0.3 0-0.6 0.1-0.3 0.1-0.7 0.1-0.3 0.1-0.6 0.2-0.3 0-0.6 0c-3.4 0.7-6.9 0.7-10.3 0-3.5-0.6-6.7-2-9.6-3.9-2.9-1.8-5.5-4.3-7.5-7.1-1.9-2.9-3.4-6.1-4.2-9.5l-0.1-0.4q-0.2-1.3-0.4-2.5-0.1-1.3-0.1-2.6-0.1-1.2 0-2.5 0.1-1.2 0.3-2.5 0.4-1.6 0.9-3.2 0.5-1.6 1.2-3.1 0.6-1.6 1.4-3 0.8-1.5 1.8-2.8 1.1-1.7 2.3-3.2 1.1-1.6 2.4-3.1 1.2-1.6 2.5-3 1.3-1.5 2.7-2.9l19.9-20.7c11.2-11.7 22.4-23.3 33.8-34.8 7.4-7.5 13.6-14 19.1-19.2 1.1-1 2.2-2 3.2-2.9 6.7-6.3 11.8-10.1 16.5-12.4 3.1-1.6 6.5-2.6 10-2.8q1.4-0.1 2.7 0 1.4 0.1 2.8 0.3 1.3 0.2 2.6 0.6 1.3 0.4 2.6 0.9 0.7 0.2 1.3 0.5 0.7 0.3 1.3 0.6 0.6 0.3 1.2 0.6 0.7 0.4 1.3 0.7 0.6 0.3 1.2 0.7 0.6 0.4 1.1 0.8 0.6 0.4 1.2 0.8 0.5 0.4 1.1 0.8 0.6 0.4 1.2 0.9 0.6 0.5 1.1 1 0.6 0.5 1.2 1 0.5 0.5 1 1 4.1 4.2 7.9 8.6 3.7 4.5 7.1 9.3 3.3 4.8 6.3 9.8 2.9 5.1 5.4 10.4c6.1 12.7 13.7 29.1 12.1 43.6zm-204.1 2.9c-3.4 3.6-7.8 6.2-12.6 7.6l-0.9 0.2c-5.2 1.2-10.7 0.8-15.7-1.1q-1.1-0.4-2.2-0.8c-11.2-5.4-17.5-18.4-23.3-28.6-19.2-34.4-38.6-68.8-57.6-103.4-7.2-13.1-15.1-25.6-20.9-39.6-4.7-11.4-10.9-24.3-8.3-36.9 4.6-22.2 31.8-33.9 51.1-40.2 5.9-1.9 12-3.5 18.1-5q2.3-0.5 4.6-1 2.3-0.5 4.6-0.9 2.3-0.5 4.6-0.8 2.4-0.4 4.7-0.7c20.1-2.8 49.6-4.3 63.4 13.7 7.9 10.1 8 24.4 8.7 36.8 0.9 15.1-0.7 29.8-1.5 44.7-1.9 39.4-4.3 78.8-6.7 118.2-0.6 11.9-0.6 26.3-8.3 36q-0.9 0.9-1.8 1.8zm-6.2 105.8q0.6 1.1 1 2.2 0.5 1.1 0.9 2.3 0.4 1.2 0.7 2.4c1.9 6.6 2.1 14 1.9 20.7l-1.1 29.1c-0.6 16.3-1.2 32.6-2.1 49-0.4 10.6-0.8 19.7-1.4 27.4-0.2 1.4-0.4 3-0.4 4.4-0.9 9.2-2.2 15.5-4.2 20.4-1.2 3.3-3.1 6.4-5.6 8.9q-1 1-2.1 1.8-1.1 0.9-2.2 1.6-1.2 0.8-2.5 1.4-1.2 0.6-2.5 1.1-0.7 0.2-1.3 0.5-0.7 0.2-1.4 0.4-0.7 0.2-1.4 0.3-0.7 0.2-1.3 0.4-0.7 0.1-1.4 0.2-0.7 0.1-1.4 0.2-0.7 0.1-1.4 0.2-0.7 0.1-1.4 0.2-3 0.2-6.1 0.1c-11.9-0.7-23.6-2.9-35-6.7-13.5-4.5-26.5-10.5-38.3-18.7q-1.2-0.8-2.3-1.8-1.1-0.9-2.2-1.9-1.1-1-2.1-2-1-1.1-2-2.2-1.7-2.2-3.3-4.6c-1.9-3.1-3.1-6.7-3.6-10.4q-0.2-1.3-0.2-2.6 0-1.3 0.1-2.7 0.2-1.3 0.4-2.6 0.3-1.3 0.7-2.6c1.5-5.1 4.4-10.8 9.4-18.6 0.8-1.1 1.6-2.5 2.4-3.7 4.2-6.4 9.6-13.8 15.8-22.4 9.4-13.4 19-26.7 28.7-39.9l17.1-23.5c1-0.9 1.8-2.3 2.7-3.4q1.2-1.7 2.6-3.3 1.3-1.5 2.8-3 1.4-1.5 3-2.9 1.5-1.4 3.1-2.7 0.6-0.4 1.2-0.8 0.6-0.4 1.2-0.8 0.6-0.4 1.2-0.7 0.6-0.4 1.3-0.7 0.4-0.2 0.8-0.4 0.4-0.2 0.8-0.3 0.5-0.2 0.9-0.4 0.4-0.1 0.9-0.3c2.4-0.8 5-1.1 7.6-1.1 2.5 0 5.1 0.5 7.5 1.3 2.5 0.8 4.8 2 6.9 3.5 2 1.6 3.8 3.4 5.3 5.5q0.7 1.1 1.3 2.2zm193.5 45.3q0.8 1.1 1.5 2.2 0.7 1.1 1.3 2.3 0.5 1.2 1 2.5 0.4 1.3 0.7 2.7 0.3 1.3 0.5 2.7 0.1 1.4 0.1 2.8 0.1 1.4-0.1 2.7-0.3 2.8-0.9 5.6-0.2 0.7-0.4 1.4-0.2 0.6-0.4 1.3-0.2 0.7-0.5 1.4-0.2 0.6-0.4 1.3-1.1 2.8-2.6 5.5c-7 12.6-16 23.5-26.3 33.6q-3.2 3.1-6.6 6-3.4 2.9-6.9 5.6-3.6 2.7-7.3 5.1-3.8 2.5-7.7 4.6-1.3 0.7-2.6 1.3-1.3 0.7-2.7 1.2-1.4 0.5-2.8 1-1.3 0.5-2.8 0.8-0.7 0.2-1.3 0.3-0.7 0.2-1.4 0.3-0.7 0.1-1.4 0.2-0.7 0.1-1.4 0.2-2.8 0.3-5.5 0-2.7-0.2-5.3-1.1-2.5-0.9-4.9-2.3-2.3-1.4-4.3-3.3c-3.9-3.6-7.8-8.6-12.6-16.6-0.6-1.2-1.5-2.5-2.2-3.7-4-6.7-8.3-14.7-13.4-24-7.9-14.4-15.6-28.7-23.2-43.2l-13.7-25.6c-3.1-5.9-6.2-12.7-7.4-19.5-0.6-3.2-0.7-6.5-0.4-9.8 0.4-2.5 1.3-5 2.4-7.3 1.2-2.3 2.8-4.3 4.6-6.2 1.8-1.8 3.9-3.3 6.2-4.5 2.3-1.1 4.8-1.9 7.4-2.3q0.4-0.1 0.9-0.1 0.4 0 0.9-0.1 0.5 0 0.9 0 0.5 0 0.9 0 0.7 0 1.5 0 0.7 0.1 1.4 0.2 0.7 0 1.4 0.1 0.7 0.1 1.4 0.3 2 0.4 4 1 2 0.6 3.9 1.2 2 0.7 3.9 1.6 1.9 0.8 3.8 1.7c1.2 0.6 2.6 1.6 3.9 2l25.6 13.6c14.5 7.6 28.9 15.3 43.2 23.2 9.4 5 17.4 9.2 24 13.2 1.2 0.8 2.6 1.6 3.8 2.3 7.9 4.8 13 8.7 16.5 12.6q1 1 1.8 2z"/>
	<path id="Layer" fill-rule="evenodd" class="s0" d="m604.9 153c0-21.1 17.2-38.4 37.9-38.4 20.5 0 37.1 17.3 38 38.8v299.6c0 21.2-17.2 38.4-38 38.4-5 0-10-1-14.6-2.9-4.6-1.9-8.8-4.8-12.4-8.3-3.5-3.6-6.3-7.8-8.2-12.5q-2.8-7-2.7-14.7zm-35.4 185.2c-0.3 5.9-1.8 16.9-9.5 25-8.3 8.6-19.5 10.7-26.1 10.7q-40.7 0.2-81.5 0.3-40.7 0.1-81.4 0.3c2.3 7.4 7.1 18.7 17.8 29.1 6.5 6.3 12.7 9.8 15.4 11.3 3.3 2.1 14.6 8.1 28.5 8.1 14.8 0 27.9-4.8 40.7-11.3l1-0.6c8.9-4.6 18.1-9.3 27.8-11 9.4-1.5 19.5 0.3 27 6.8 8.9 7.8 12.4 19 9.2 30.7-3.9 13.1-14.9 24.4-26.4 31.2q-2.5 1.5-5.1 2.8-2.5 1.3-5.1 2.6-2.6 1.2-5.3 2.3-2.6 1.1-5.3 2.1-6.9 2.5-14 4.3-7 1.7-14.2 2.9-7.3 1.1-14.5 1.5-7.3 0.5-14.6 0.3c-4.7 0-9.8 0-14.9-0.6-5.3-0.6-10.6-1.8-15.7-3q-3-0.7-6.1-1.5-3-0.8-6-1.9-3-1-5.9-2.1-2.9-1.2-5.7-2.5-2.9-1.3-5.7-2.7-2.7-1.4-5.5-2.9-2.7-1.6-5.3-3.2-2.6-1.7-5.2-3.5-2.5-1.8-5-3.7-2.5-2-4.9-4-2.3-2.1-4.6-4.2-2.3-2.2-4.5-4.4-2.2-2.3-4.2-4.7-2.1-2.3-4.1-4.8-1.9-2.5-3.8-5-1.9-2.5-3.6-5.2c-16-24.4-23.5-54.4-22-83.6 1.2-28.6 10.7-57.1 27.9-80.3 1.9-3 4-5.4 6.1-7.8q1.3-1.5 2.5-3c21.3-26 49.7-34.2 61.4-37.6l0.7-0.2q8.8-2.5 18-3.8 9.1-1.2 18.3-1.2 9.2 0 18.4 1.2 9.1 1.3 18 3.8c5.6 1.5 37.4 11.4 62 37.8 1.2 1.2 4.5 5.1 8.6 10.8q4 5.3 7.4 11 3.4 5.8 6.3 11.8 2.8 6 5.1 12.2 2.3 6.3 4 12.7l0.1 0.2c1.7 6.5 3.5 15.4 3.5 26.5zm-174.2-49.1q-4.4 3.5-8.1 7.7-3.7 4.3-6.6 9-3 4.8-5.1 10-2.1 5.3-3.3 10.7h129.4q-1.3-5.4-3.5-10.6-2.2-5.3-5.2-10-3-4.8-6.7-9.1-3.7-4.2-8.1-7.8-4.4-3.5-9.3-6.2-4.9-2.8-10.2-4.7-5.3-1.9-10.9-2.9-5.5-1-11.1-1-5.6 0-11.1 1-5.6 1-10.8 2.9-5.3 1.9-10.2 4.7-4.9 2.7-9.2 6.3zm615.6 60.4c0 76.7-55.2 138.4-123.2 138.4-34.1 0-64.7-15.5-86.7-39.9v89.3c0.1 5-0.9 9.9-2.8 14.5-1.9 4.7-4.7 8.9-8.2 12.4-3.6 3.5-7.8 6.4-12.4 8.3-4.6 1.9-9.5 2.9-14.5 2.9-5 0-10-1-14.6-2.9-4.6-1.9-8.8-4.7-12.4-8.3-3.5-3.5-6.3-7.7-8.2-12.4-1.9-4.6-2.9-9.5-2.8-14.5v-286c-0.2-10 3.6-19.5 10.5-26.7 6.9-7.2 16.3-11.3 26.3-11.6 9.9-0.3 19.5 3.4 26.8 10.1 7.3 6.8 11.6 16.1 12 26.1v0.9c22-24.7 52.9-39.9 86.7-39.9 68 0 123.2 62.5 123.5 139.3zm-70.1 0.4c0-41.9-31.3-75.7-70-75.7-38.8 0-70.1 33.8-70.1 75.7 0 41.9 31.3 75.8 70.1 75.8 38.7 0 70-33.9 70-75.8zm-696.6 19.5l-12.4 27.4c-5.7 11.9-11.3 24.1-16.7 36.3l-5.1 11.5c-23.7 52.7-51.9 115.4-113.3 128.7-29.7 6.5-74.5-2.4-91.1-30.4-16.6-28.3 8-60.7 39.8-53.3 5 1.1 9.9 3.6 14.9 6.1 8.3 4.1 16.7 8.3 25.7 6.4 8.7-1.4 14-7.7 20.8-15.7 9.5-11 13.7-22.7 15.4-29.5l-0.4-1q0-0.2-0.1-0.3-0.1-0.1-0.1-0.3-0.1-0.1-0.1-0.2-0.1-0.1-0.1-0.3c-7.8-14.4-14.5-27.3-20.1-38q-1.2-2.3-2.4-4.6-1.2-2.3-2.4-4.5-1.2-2.3-2.4-4.6-1.2-2.3-2.4-4.5l-13-24.6c-9.4-18-11-20.9-15.2-28.7q-3.5-6.5-7-13-3.6-6.5-7.2-12.9-3.6-6.5-7.4-12.9-3.7-6.3-7.5-12.7c-11-18.4-22.3-39-13.1-60.7 1.8-4.2 4.2-8 7.3-11.3 3.2-3.2 6.9-5.9 10.9-7.8 4.1-1.9 8.5-3 13-3.3 4.5-0.3 9.1 0.2 13.4 1.6 19.1 5.8 27.5 23.9 35.4 40.9 1.5 3.1 2.9 6.2 4.3 9.1 12.8 25.3 25.3 50.6 37.7 75.9 1.1 2.5 2.8 5.9 4.8 10.1 1.9 3.7 4 8 6.2 12.8l3.3 6.8c1.3 2.7 2.4 5 3.2 6.9 5.8-14.5 11.7-28.8 17.5-43.2 5.9-14.4 11.8-28.7 17.6-43.2 0.1-0.7 1.5-3.8 3.6-8.5 1.7-3.9 4-8.9 6.4-14.7l2.6-6c7.7-18.8 16.9-41.4 37.5-47.5 3.6-1.1 7.4-1.6 11.2-1.5q5.7 0.2 11.1 2.1c3.6 1.2 6.9 3 9.9 5.3 3.1 2.3 5.7 5 7.9 8.1 4.4 6.2 6.2 13.4 6.5 20.5 0.2 15.8-7.4 32.7-13.9 47.3-1.6 3.5-3.2 6.9-4.5 10.1l-0.8 1.8c-1.8 4.1-6.7 15.1-15.2 33.4-3.1 6.5-6 13-9 19.6z"/>
</svg>